<svg width="60" height="53" viewBox="0 0 60 53" fill="none" xmlns="http://www.w3.org/2000/svg">
<path d="M56.309 0H3.31401C1.48597 0 0 1.48597 0 3.31401V9.93717C0 11.7652 1.48597 13.2512 3.31401 13.2512H56.3139C58.1419 13.2512 59.6279 11.7652 59.6279 9.93717V3.31401C59.623 1.48597 58.1371 0 56.309 0Z" fill="#656CEE"/>
<path d="M56.309 19.8735H3.31401C1.48597 19.8735 0 21.3595 0 23.1875V29.8107C0 31.6388 1.48597 33.1247 3.31401 33.1247H56.3139C58.1419 33.1247 59.6279 31.6388 59.6279 29.8107V23.1875C59.623 21.3595 58.1371 19.8735 56.309 19.8735Z" fill="#656CEE"/>
<path d="M56.309 39.7483H3.31401C1.48597 39.7483 0 41.2343 0 43.0623V49.6855C0 51.5135 1.48597 52.9995 3.31401 52.9995H56.3139C58.1419 52.9995 59.6279 51.5135 59.6279 49.6855V43.0623C59.623 41.2343 58.1371 39.7483 56.309 39.7483Z" fill="#656CEE"/>
</svg>
